<?xml version="1.0" encoding="utf-8"?>
<!-- Generator: Adobe Illustrator 16.0.3, SVG Export Plug-In . SVG Version: 6.00 Build 0)  -->
<!DOCTYPE svg PUBLIC "-//W3C//DTD SVG 1.1//EN" "http://www.w3.org/Graphics/SVG/1.1/DTD/svg11.dtd">
<svg version="1.1" id="Capa_1" xmlns="http://www.w3.org/2000/svg" xmlns:xlink="http://www.w3.org/1999/xlink" x="0px" y="0px"
	 width="30px" height="30px" viewBox="0 0 30 30" enable-background="new 0 0 30 30" xml:space="preserve">
<g>
	<path fill="#FFFFFF" d="M16.548,24.589c-1.833-0.623-3.326-1.982-4.126-3.725c0.132,0.966,0.214,1.964,0.488,2.723
		C13.773,24.389,16.113,26.189,16.548,24.589z"/>
	<path fill="#FFFFFF" d="M18.809,24.963c-0.474,0-0.936-0.047-1.384-0.137c-1.222,0.46-2.528,0.703-3.873,0.703
		c-2.934,0-5.691-1.142-7.766-3.216c-1.646-1.645-2.704-3.72-3.071-5.972c0.182-0.779,0.536-1.491,1.112-1.993
		c0.243-0.248-0.018-0.988-1.148-1.362c0.198-1.395,0.658-2.726,1.36-3.935c1.349,0.215,2.886-1.301,3.265-2.43
		c0.489-0.369,0.201-0.658-0.306-0.89c1.884-1.406,4.16-2.167,6.554-2.167c1.667,0,3.277,0.37,4.737,1.069
		c-0.057,0.881-1.147,0.763-1.737,0.082c-0.284-0.025-0.657,0.065-1.048,0.233c-1.171,0.501-2.498,1.663-2.018,2.2
		c0.851-0.575,1.814-0.365,1.136,0.769c-0.94,1.475-1.748-0.55-2.71,0.046c0.468,0.407-1.259,1.011-1.771,1.04
		c-1.045-0.169,0.887,0.761,0.152,1.082c-2.137,0.351,1.055,1.52,1.104-0.21c1.955-1.078,2.051,2.267,4.023,1.91
		c0.025-0.014,0.051-0.028,0.077-0.042c-0.536-0.825,0.146-1.786,1.202-1.911c1.521,0.421-0.15,1.095-0.233,1.484
		c0.732-0.259,1.52-0.401,2.341-0.401c3.662,0,6.669,2.804,6.994,6.381c0.197-0.892,0.3-1.813,0.3-2.749
		c0-3.352-1.306-6.504-3.676-8.875c-2.371-2.371-5.522-3.676-8.875-3.676S7.046,3.301,4.676,5.672C2.306,8.043,1,11.195,1,14.547
		c0,3.353,1.306,6.504,3.676,8.875s5.523,3.676,8.876,3.676c2.758,0,5.38-0.885,7.543-2.518
		C20.378,24.827,19.609,24.963,18.809,24.963z"/>
	<path fill="#FFFFFF" d="M8.908,11.516c-1.571,0.337-2.453,2.52-2.026,3.987c0.711,2.05,2.285,2.216,4.118,2.296
		c0.358,0.185,0.62,0.472,0.818,0.825c-0.022-0.225-0.035-0.454-0.035-0.686c0-1.834,0.706-3.505,1.857-4.756
		C11.872,12.684,11.004,10.2,8.908,11.516z"/>
	<path fill="#FFFFFF" d="M28.556,25.411l-3.719-3.719c-0.554,0.861-1.287,1.595-2.148,2.149l3.718,3.718
		c0.593,0.593,1.557,0.593,2.149,0C29.148,26.967,29.148,26.004,28.556,25.411z"/>
	<path fill="#FFFFFF" d="M18.871,11.799c-0.71,0-1.393,0.123-2.025,0.347c-0.29,0.103-0.569,0.226-0.839,0.37
		c-0.021,0.012-0.043,0.023-0.064,0.036c-0.578,0.318-1.1,0.729-1.542,1.21c-0.997,1.083-1.606,2.527-1.606,4.114
		c0,0.2,0.01,0.398,0.029,0.593c0.066,0.686,0.247,1.338,0.522,1.938c0.692,1.509,1.983,2.684,3.569,3.224
		c0.247,0.083,0.501,0.153,0.76,0.205c0.387,0.078,0.787,0.119,1.196,0.119c0.692,0,1.357-0.118,1.978-0.331
		c2.385-0.821,4.101-3.083,4.101-5.747c0-0.188-0.01-0.373-0.027-0.556C24.641,14.224,22.04,11.799,18.871,11.799z M18.871,22.434
		c-0.65,0-1.271-0.138-1.83-0.385c-1.604-0.707-2.728-2.311-2.728-4.174c0-2.513,2.044-4.558,4.558-4.558
		c2.263,0,4.145,1.657,4.497,3.82c0.029,0.178,0.048,0.358,0.057,0.542c0.002,0.065,0.005,0.13,0.005,0.196
		c0,1.918-1.191,3.563-2.873,4.234C20.035,22.318,19.467,22.434,18.871,22.434z"/>
</g>
</svg>
